<?xml version="1.0" standalone="no"?>
<!DOCTYPE svg PUBLIC "-//W3C//DTD SVG 20010904//EN"
 "http://www.w3.org/TR/2001/REC-SVG-20010904/DTD/svg10.dtd">
<svg version="1.0" xmlns="http://www.w3.org/2000/svg"
 width="158.000000pt" height="158.000000pt" viewBox="0 0 158.000000 158.000000"
 preserveAspectRatio="xMidYMid meet">
<metadata>
Created by potrace 1.14, written by Peter Selinger 2001-2017
</metadata>
<g transform="translate(0.000000,158.000000) scale(0.100000,-0.100000)"
fill="#000000" stroke="none">
<path d="M675 1573 c-16 -2 -65 -13 -108 -25 -77 -20 -78 -21 -60 -40 18 -17
22 -18 63 -3 24 8 44 14 44 13 11 -19 21 -90 15 -94 -5 -3 -9 -1 -9 5 0 6 -7
8 -15 5 -23 -9 -48 15 -34 32 9 11 8 15 -4 20 -30 11 -38 -5 -22 -43 18 -42
18 -43 6 -43 -5 0 -15 16 -21 35 -6 19 -16 35 -21 35 -6 0 -8 4 -5 9 3 5 0 14
-8 20 -26 22 -24 -2 5 -55 29 -51 27 -76 -2 -34 -10 14 -18 17 -29 10 -13 -8
-12 -11 5 -24 11 -8 17 -17 14 -20 -3 -3 -16 4 -28 16 l-23 21 23 18 c29 23
18 24 -22 3 -23 -11 -28 -18 -20 -28 6 -7 8 -16 4 -20 -4 -3 2 -13 13 -21 23
-17 5 -20 -31 -3 -28 13 -33 28 -9 28 8 0 12 5 9 10 -8 13 -45 -6 -45 -22 0
-7 10 -22 22 -35 12 -13 18 -26 14 -30 -3 -4 -19 9 -35 28 -16 19 -33 31 -37
26 -4 -4 5 -21 21 -37 16 -16 25 -33 22 -37 -4 -4 -13 -1 -19 5 -17 17 -28 15
-21 -4 4 -12 1 -15 -13 -12 -10 2 -19 8 -19 15 0 6 -3 15 -7 19 -5 4 -8 2 -8
-4 0 -7 -4 -12 -10 -12 -5 0 -10 7 -10 16 0 13 7 15 30 11 17 -4 30 -2 30 3 0
6 -8 10 -17 10 -14 0 -12 4 7 25 13 14 29 25 37 25 7 0 13 4 13 8 0 5 25 22
55 38 36 18 54 33 50 42 -3 8 -5 18 -5 23 0 6 -28 -5 -62 -23 -118 -63 -289
-252 -334 -372 -7 -17 -5 -17 24 -2 17 9 37 26 43 37 6 12 14 17 18 12 3 -6
22 -18 41 -28 19 -10 29 -20 23 -22 -7 -3 -13 -11 -13 -18 0 -20 -38 -44 -61
-38 -10 3 -17 9 -14 13 3 5 1 11 -4 14 -5 3 -12 -1 -15 -10 -4 -9 -9 -14 -12
-11 -3 3 -1 15 6 26 14 27 -1 27 -25 1 -22 -24 -15 -32 43 -50 49 -15 72 -37
26 -25 -16 4 -37 8 -46 9 -10 1 -26 10 -36 19 -19 17 -20 15 -38 -45 -28 -97
-26 -298 4 -402 89 -309 322 -516 644 -572 388 -67 775 189 879 582 28 104 30
279 4 379 -23 91 -89 235 -108 235 -10 0 -13 7 -10 19 4 14 -19 44 -89 113
-89 89 -158 139 -241 173 l-38 16 15 -30 c14 -26 14 -33 1 -58 -8 -15 -15 -34
-15 -40 0 -18 -7 -16 -32 6 -23 22 -18 51 9 50 11 0 13 -3 6 -6 -15 -5 -18
-33 -4 -33 8 0 21 23 21 39 0 4 -11 13 -24 19 -22 10 -25 7 -40 -31 -9 -22
-18 -38 -21 -35 -10 9 25 118 38 118 7 0 8 3 1 10 -27 27 -241 48 -349 33z
m108 -40 c-16 -6 -17 -70 -1 -75 13 -5 2 -28 -13 -28 -6 0 -7 5 -4 10 3 6 1
10 -4 10 -6 0 -11 18 -11 40 0 22 -4 40 -10 40 -5 0 -10 -11 -10 -25 0 -26
-21 -42 -40 -30 -6 3 -7 11 -4 17 4 6 10 5 15 -3 6 -10 9 -8 9 9 0 16 -6 22
-22 23 -22 1 -22 1 2 9 27 9 113 12 93 3z m149 -9 c7 -4 5 -10 -5 -15 -8 -5
-18 -25 -21 -44 -4 -19 -10 -35 -14 -35 -16 1 -43 29 -37 39 3 6 -1 11 -9 11
-24 0 -29 -20 -10 -36 18 -14 18 -14 -3 -4 -13 6 -23 17 -23 25 0 7 -3 20 -6
28 -3 10 3 18 18 23 l23 8 -25 8 c-16 5 -1 6 38 3 35 -3 68 -8 74 -11z m246
-94 c46 -27 67 -50 44 -50 -4 0 -16 -13 -25 -30 -10 -16 -23 -30 -28 -30 -6 0
-1 16 11 35 12 19 20 41 17 48 -2 6 -15 -6 -28 -28 -17 -29 -25 -35 -27 -22
-4 19 -17 22 -28 6 -8 -13 -24 7 -24 31 0 11 3 11 12 2 19 -19 29 -14 16 8
-17 26 -4 36 29 22 23 -10 25 -9 10 1 -70 46 -56 51 21 7z m-273 -55 c214 -45
394 -217 450 -430 33 -128 13 -294 -51 -415 -206 -392 -752 -423 -1001 -57
-74 108 -98 191 -98 332 0 88 5 123 23 175 100 291 384 457 677 395z m374 -19
l22 -23 -32 -32 c-17 -18 -34 -29 -37 -26 -3 3 0 11 6 17 16 16 15 28 -3 28
-8 0 -15 7 -15 15 0 18 12 19 28 3 6 -6 15 -8 19 -4 5 4 0 13 -10 20 -9 7 -17
16 -17 20 0 13 17 5 39 -18z m115 -126 c14 -22 21 -40 15 -40 -6 0 -22 -9 -36
-20 -33 -26 -51 -26 -28 0 14 15 16 23 7 32 -8 8 -13 7 -18 -5 -3 -9 -10 -17
-14 -17 -5 0 -3 14 3 30 11 30 27 40 27 18 0 -9 3 -9 12 0 8 8 8 15 -2 27 -7
8 -8 15 -3 15 6 0 22 -18 37 -40z m-1177 5 c10 -8 27 -21 38 -29 11 -8 17 -18
12 -22 -4 -4 -13 -2 -19 4 -15 15 -32 16 -23 2 3 -5 -1 -10 -9 -10 -28 0 -17
-20 12 -21 27 0 27 0 4 -11 -18 -9 -26 -8 -39 5 -15 15 -15 18 2 37 10 11 15
23 11 27 -4 4 -18 -6 -31 -22 -13 -17 -24 -27 -25 -22 0 7 42 77 47 77 2 0 11
-7 20 -15z m1223 -74 c13 -26 13 -31 -5 -31 -17 0 -20 -35 -4 -46 6 -3 16 -1
22 5 9 9 7 10 -7 5 -13 -5 -17 -4 -12 4 12 19 36 14 36 -7 0 -11 5 -23 10 -26
18 -11 11 -21 -27 -35 -21 -8 -41 -16 -45 -18 -4 -2 -5 22 -3 52 3 54 -6 73
-19 40 -4 -9 -9 -14 -13 -11 -8 9 17 67 29 67 5 0 6 -4 3 -10 -3 -5 -2 -10 3
-10 16 0 22 13 11 27 -8 9 -8 13 -1 13 6 0 16 -9 22 -19z m46 -253 c-46 -9
-73 -3 -38 7 23 8 28 20 12 30 -11 7 -4 25 10 25 5 0 12 -9 15 -20 10 -33 23
-23 15 13 -4 19 -12 31 -20 29 -57 -13 -73 -14 -66 -4 3 6 20 13 36 17 16 4
33 12 37 18 4 6 14 -16 23 -48 l17 -60 -41 -7z m-1353 76 c15 -3 27 -10 27
-16 0 -5 -10 -6 -22 -2 -22 6 -23 6 -5 -13 17 -19 17 -22 2 -37 -18 -18 -35
-21 -35 -6 0 6 7 10 15 10 8 0 15 5 15 11 0 6 -9 8 -20 4 -11 -4 -20 -2 -20 4
0 18 -18 12 -23 -6 -3 -13 -5 -12 -6 5 -1 17 4 22 17 20 11 -2 18 2 18 7 -1 6
-7 9 -13 9 -7 -1 -13 5 -13 13 0 9 6 12 18 9 9 -3 29 -8 45 -12z m-15 -140 c5
3 9 -8 9 -24 0 -16 -4 -27 -9 -24 -5 4 -16 -2 -23 -12 -14 -18 -14 -18 -15 0
0 11 -5 16 -13 13 -9 -3 -14 4 -14 23 0 19 5 26 14 23 8 -3 13 2 13 13 1 18 1
18 15 0 7 -10 18 -16 23 -12z m1382 5 c0 -6 6 -9 13 -6 10 4 14 -4 14 -24 0
-15 -5 -25 -10 -22 -5 3 -13 -1 -18 -8 -8 -12 -10 -12 -18 0 -5 7 -13 11 -18
8 -5 -3 -10 7 -10 22 0 20 4 28 14 24 7 -3 13 0 13 6 0 6 5 11 10 11 6 0 10
-5 10 -11z m-1387 -126 c15 -9 6 -23 -23 -38 -39 -20 -57 -20 -40 0 10 13 9
19 -6 36 -19 21 -19 21 21 14 22 -4 43 -10 48 -12z m1351 -7 c-3 -8 -1 -17 5
-21 7 -3 11 2 11 14 0 12 5 21 10 21 6 0 10 -9 10 -20 0 -11 5 -20 10 -20 6 0
10 9 10 20 0 11 5 20 10 20 12 0 13 -30 1 -49 -6 -10 -19 -12 -45 -7 -32 6
-36 10 -36 37 0 17 4 28 10 24 5 -3 7 -12 4 -19z m-1339 -56 c-3 -5 -17 -10
-31 -10 -17 0 -24 -5 -24 -20 0 -11 -4 -20 -10 -20 -18 0 -11 48 8 53 33 9 63
7 57 -3z m1335 -5 c-16 -20 -1 -39 26 -33 12 2 18 11 16 23 -3 16 -1 17 12 6
21 -17 4 -51 -27 -52 l-22 0 23 -10 c29 -11 20 -29 -16 -30 -27 0 -27 0 -4
-11 36 -18 25 -28 -15 -14 -46 16 -53 33 -16 39 27 4 27 5 6 12 -13 4 -23 12
-23 17 0 5 10 6 23 2 22 -7 22 -6 3 14 -15 18 -16 24 -6 37 7 8 17 15 22 15 6
0 5 -7 -2 -15z m-1320 -44 c0 -5 -14 -14 -31 -20 -25 -9 -29 -14 -24 -33 6
-22 6 -22 -9 -4 -23 28 -20 35 17 51 38 17 47 18 47 6z m30 -79 c0 -7 -63 -42
-75 -42 -16 0 0 19 28 33 37 18 47 20 47 9z m1240 -12 c-8 -14 -8 -20 0 -20 6
0 13 7 16 15 9 22 23 9 17 -15 -3 -11 0 -20 6 -20 6 0 11 7 11 15 0 8 5 15 10
15 13 0 13 -6 0 -31 -10 -18 -13 -18 -45 -4 -43 17 -46 11 -5 -10 17 -9 30
-20 30 -25 0 -6 -18 -1 -40 10 -22 11 -40 23 -40 26 0 14 32 64 41 64 6 0 6
-7 -1 -20z m-1237 -37 c-17 -26 -17 -26 2 -16 16 9 23 6 41 -19 26 -34 23 -50
-12 -68 -22 -12 -27 -11 -47 9 -19 19 -20 23 -7 31 8 5 24 16 35 25 19 15 18
15 -12 0 -47 -22 -58 -19 -39 10 17 25 17 26 -9 19 -36 -9 -31 3 13 25 46 23
57 18 35 -16z m1207 -32 c0 -5 -5 -11 -12 -13 -6 -2 -9 -12 -5 -21 8 -22 47
-22 47 0 0 12 3 14 10 7 15 -15 1 -44 -21 -44 -12 0 -16 -5 -13 -15 4 -8 1
-22 -6 -30 -14 -17 -40 -20 -40 -5 0 6 7 10 15 10 8 0 15 4 15 10 0 5 -13 7
-29 4 -31 -7 -45 5 -35 30 7 17 34 22 34 6 0 -5 -4 -10 -10 -10 -5 0 -10 -4
-10 -10 0 -6 10 -5 25 2 23 10 24 13 10 28 -18 20 -19 32 -3 48 14 14 28 16
28 3z m-1148 -81 c-18 -17 -38 -30 -45 -30 -6 1 4 14 23 30 45 39 65 38 22 0z
m58 -16 c0 -4 -9 -22 -21 -40 -21 -34 -43 -47 -33 -19 4 10 -2 18 -17 24 -24
9 -23 9 11 25 37 16 60 20 60 10z m987 -26 c-2 -7 7 -25 21 -40 14 -16 21 -28
15 -28 -5 0 -18 9 -28 20 -10 12 -25 18 -32 16 -16 -7 -17 16 -1 32 16 16 31
15 25 0z m-929 -31 c6 -7 8 -24 5 -38 -6 -24 -6 -24 15 -5 12 11 22 14 22 9 0
-6 8 -13 18 -17 9 -3 40 -19 67 -34 28 -16 67 -34 87 -41 34 -11 36 -14 28
-37 -13 -34 -12 -44 4 -44 8 0 17 13 21 30 7 33 8 33 54 24 31 -7 43 -24 16
-24 -9 0 -15 -9 -15 -24 0 -14 -5 -28 -12 -32 -8 -5 -9 3 -5 29 7 44 -17 53
-27 12 -14 -54 -70 -38 -59 16 8 39 -15 38 -28 -1 -6 -16 -15 -27 -20 -24 -5
3 -2 18 6 34 12 24 12 30 1 40 -12 9 -17 4 -27 -24 -7 -20 -17 -36 -21 -36
-11 0 -9 11 7 40 18 32 18 40 0 40 -8 0 -22 -15 -31 -32 -10 -19 -19 -27 -22
-20 -2 7 3 24 12 38 16 23 16 25 -1 31 -10 4 -21 11 -25 17 -4 6 -10 7 -14 3
-4 -3 -1 -13 6 -22 18 -21 5 -47 -22 -43 -16 2 -24 11 -26 28 -2 24 -2 24 13
6 8 -11 18 -17 21 -13 4 4 2 13 -5 20 -6 8 -9 23 -5 33 4 13 -2 10 -16 -8 -12
-16 -26 -28 -31 -28 -5 0 -9 12 -9 28 -1 25 -2 26 -14 9 -8 -10 -17 -14 -20
-9 -3 5 6 20 19 32 14 13 25 28 25 34 -1 6 -14 -4 -30 -23 -16 -19 -33 -32
-37 -28 -7 7 45 67 58 67 3 0 11 -6 17 -13z m884 -42 c16 -21 23 -23 34 -14 8
7 18 9 22 5 4 -4 -2 -14 -12 -22 -18 -13 -23 -11 -48 13 -26 25 -35 43 -22 43
3 0 15 -11 26 -25z m-2 -56 c0 -19 -23 -31 -43 -24 -6 3 -17 -5 -22 -17 -14
-30 -30 -33 -55 -8 -27 27 -23 64 8 68 12 2 22 -2 22 -8 0 -6 -5 -8 -10 -5
-16 10 -24 -23 -10 -40 16 -19 30 -19 30 -1 0 8 5 16 12 18 7 3 5 13 -7 31
-23 35 -7 35 21 0 28 -35 44 -22 21 16 -25 42 -20 51 8 16 14 -16 25 -37 25
-46z m-150 -19 c0 -5 -9 -10 -20 -10 -24 0 -25 -9 -6 -35 12 -16 16 -17 30 -6
13 11 16 11 16 -2 0 -19 -27 -30 -48 -18 -12 7 -19 4 -27 -12 -14 -27 -29 -31
-49 -12 -35 35 -8 98 32 76 16 -9 21 -7 25 9 5 20 47 29 47 10z m-320 -50 c12
-8 9 -10 -12 -10 -16 0 -28 -4 -28 -10 0 -5 9 -10 20 -10 11 0 20 -5 20 -11 0
-6 -9 -9 -20 -6 -13 3 -20 0 -20 -8 0 -8 10 -16 23 -18 16 -3 13 -5 -10 -6
-28 -1 -33 2 -33 22 1 60 23 81 60 57z m94 -6 c15 -14 16 -14 16 0 0 11 9 16
28 15 16 -1 20 -3 10 -6 -22 -5 -24 -23 -3 -23 8 0 15 -4 15 -10 0 -5 -7 -10
-16 -10 -11 0 -14 -6 -9 -20 4 -11 2 -20 -4 -20 -6 0 -11 10 -12 23 l0 22 -11
-22 c-19 -39 -78 -24 -78 18 0 18 25 49 40 49 5 0 16 -7 24 -16z"/>
<path d="M855 1510 c-4 -6 -10 -8 -15 -5 -5 3 -11 1 -15 -5 -4 -6 5 -10 19
-10 19 0 26 -5 26 -20 0 -11 4 -20 9 -20 9 0 21 33 21 58 0 14 -36 16 -45 2z"/>
<path d="M1137 1389 c4 -13 9 -17 15 -11 11 11 3 32 -12 32 -4 0 -6 -9 -3 -21z"/>
<path d="M700 1324 c-8 -14 -32 -35 -53 -45 -46 -24 -69 -70 -65 -131 3 -47
-17 -65 -28 -24 -4 18 -13 26 -28 26 -30 0 -74 -48 -77 -85 -3 -32 29 -102 55
-124 20 -16 20 -50 2 -85 l-14 -27 -6 26 c-7 26 -21 31 -45 16 -11 -7 -11 -13
-1 -32 12 -22 9 -27 -37 -69 -60 -54 -77 -83 -69 -121 9 -45 35 -78 85 -106
66 -37 107 -78 156 -154 25 -38 59 -76 81 -89 42 -26 130 -38 161 -22 13 7 33
8 64 1 24 -6 63 -7 87 -4 49 7 91 40 73 58 -8 8 -6 15 4 27 35 39 -23 77 -102
66 -41 -6 -46 -5 -31 7 11 9 15 21 11 35 -7 27 -7 27 42 2 40 -20 119 -27 143
-11 11 6 8 16 -12 46 -32 46 -32 51 -2 59 28 7 109 92 101 106 -3 6 -24 13
-46 16 -46 8 -48 17 -14 66 21 31 22 37 9 42 -24 9 -80 7 -109 -4 -24 -9 -26
-8 -23 18 2 21 -2 28 -20 30 -12 2 -37 -4 -54 -13 -18 -9 -34 -12 -36 -7 -6
19 -31 47 -32 35 0 -6 5 -15 10 -18 15 -9 12 -35 -4 -35 -8 0 -17 -4 -20 -8
-3 -5 8 -7 23 -4 25 3 33 -2 58 -40 52 -76 49 -86 -32 -89 -29 -1 -29 -1 -5
-8 22 -6 25 -12 25 -56 l0 -49 -40 -3 c-28 -2 -49 4 -67 18 -16 11 -28 15 -28
10 0 -12 32 -30 69 -41 25 -7 25 -7 -14 -25 -22 -10 -47 -20 -55 -21 -30 -7
-88 8 -110 28 -26 24 -23 53 15 136 23 51 27 54 52 47 16 -3 39 -17 53 -29 23
-21 60 -41 60 -32 0 2 -16 14 -36 25 -44 26 -38 40 7 17 18 -9 34 -14 37 -12
8 9 -58 36 -90 36 l-33 1 26 14 c15 8 34 31 43 52 9 21 24 51 32 68 l16 30
-21 -19 c-12 -11 -21 -14 -21 -9 0 22 28 30 115 31 100 2 122 13 111 56 -7 29
-34 34 -81 16 -19 -7 -36 -5 -65 6 -45 18 -45 25 4 48 38 18 54 60 43 115 -4
20 -1 33 10 43 33 26 73 92 73 118 0 48 -39 64 -85 34 -29 -19 -39 -42 -25
-59 8 -9 -2 -28 -35 -69 -25 -31 -48 -56 -50 -56 -3 0 0 11 5 24 15 40 -10
107 -48 131 -17 11 -31 23 -32 27 0 10 -33 48 -41 48 -3 0 -12 -12 -19 -26z
m57 -56 c-6 -3 -19 -5 -30 -2 -11 2 -28 -1 -38 -7 -15 -7 -19 -6 -19 5 0 7 7
16 15 20 8 3 15 11 15 19 0 7 5 18 12 25 9 9 17 4 34 -21 14 -20 18 -34 11
-39z m244 32 c10 -6 19 -21 19 -34 0 -27 -77 -126 -98 -126 -13 0 -12 -3 1
-18 26 -29 20 -92 -9 -92 -13 0 -19 17 -16 51 1 9 -8 19 -18 22 -15 4 -30 -7
-56 -39 -39 -47 -61 -54 -25 -8 l22 28 -26 15 c-26 16 -33 31 -14 31 6 0 19
-10 28 -21 17 -22 18 -21 92 72 71 89 116 154 67 97 -22 -26 -48 -37 -48 -21
0 10 42 53 52 53 5 0 18 -5 29 -10z m-345 -49 c0 -11 -3 -18 -7 -15 -4 2 -6
-7 -5 -20 l1 -24 25 29 c26 30 99 48 101 25 0 -7 3 -6 6 2 7 18 30 15 38 -5
19 -47 23 -76 15 -99 -9 -23 -10 -23 -30 -7 -11 10 -20 23 -20 29 0 14 -28 26
-41 18 -17 -10 -9 -22 11 -17 27 7 27 -30 0 -57 -16 -16 -25 -18 -40 -10 -11
6 -20 15 -20 20 0 5 -6 7 -14 4 -7 -3 -17 3 -20 13 -4 10 -2 19 3 21 6 2 11 9
11 16 0 7 9 21 19 30 16 14 26 16 55 8 42 -12 48 -3 10 15 -31 14 -66 1 -89
-34 -9 -12 -22 -23 -30 -23 -8 0 -15 -9 -15 -20 0 -26 -17 -26 -25 1 -9 28 2
70 27 97 26 27 34 28 34 3z m-18 -159 c-24 -18 -68 -42 -74 -42 -2 0 -4 9 -4
20 0 11 4 20 8 20 16 0 62 45 62 60 1 8 8 2 16 -13 15 -28 14 -30 -8 -45z
m-120 41 c0 -5 3 -16 7 -27 11 -26 -6 -50 -39 -54 -21 -3 -26 1 -26 18 0 11
11 32 25 45 24 25 36 31 33 18z m181 -37 c8 -10 9 -16 1 -21 -13 -8 -30 3 -30
21 0 18 14 18 29 0z m96 -6 c8 -13 -9 -41 -67 -104 -38 -43 -48 -48 -71 -42
-15 3 -27 13 -27 22 0 17 100 127 108 119 3 -2 -16 -27 -41 -54 -26 -28 -47
-56 -47 -63 0 -7 9 1 19 17 11 17 35 45 55 64 20 19 36 38 36 42 0 13 28 11
35 -1z m-126 -19 c8 -14 6 -23 -9 -36 -19 -17 -20 -17 -29 6 -7 18 -5 27 7 37
20 15 19 15 31 -7z m201 -3 c0 -6 -30 -46 -67 -89 -92 -109 -107 -88 -17 24
62 78 84 95 84 65z m-322 -35 c-12 -14 -28 -8 -28 11 0 6 6 18 12 24 10 10 14
9 19 -5 4 -10 2 -24 -3 -30z m338 12 c-4 -10 2 -19 17 -25 12 -5 16 -9 9 -9
-8 -1 -25 -10 -39 -21 -24 -19 -43 -19 -43 0 0 8 51 70 58 70 2 0 1 -7 -2 -15z
m-303 -20 c-20 -27 -29 -30 -38 -15 -3 6 0 10 8 10 8 0 17 7 21 15 3 8 10 15
16 15 6 0 3 -11 -7 -25z m49 -27 c-5 -21 -21 -19 -36 4 -7 12 -6 21 3 32 12
15 15 15 26 -1 7 -9 10 -25 7 -35z m-125 36 c-3 -3 6 -16 20 -28 22 -19 24
-25 14 -44 -6 -12 -16 -22 -20 -22 -14 0 -52 65 -40 69 5 1 2 9 -8 17 -17 12
-16 13 11 14 16 0 27 -3 23 -6z m242 -63 c-19 -22 -41 -41 -49 -41 -8 0 5 19
30 45 53 54 65 52 19 -4z m-145 0 c12 -13 14 -21 6 -26 -6 -4 -14 -4 -17 -1
-4 3 -1 6 6 6 7 0 9 5 6 10 -3 6 -11 10 -16 10 -6 0 -7 -4 -4 -10 3 -5 2 -10
-4 -10 -5 0 -13 5 -16 10 -3 6 -1 10 5 10 6 0 8 5 5 10 -11 18 11 11 29 -9z
m231 -21 c8 -38 -6 -65 -16 -30 -10 37 -10 60 0 60 5 0 12 -13 16 -30z m-245
-15 c22 -11 30 -12 33 -2 3 7 6 5 6 -5 1 -9 4 -25 7 -35 5 -17 5 -17 -9 0 -14
17 -15 16 -20 -3 -4 -15 -13 -20 -41 -20 -31 0 -36 3 -36 24 0 31 10 56 22 56
5 0 22 -7 38 -15z m215 -25 c-7 -11 -45 -14 -45 -3 0 3 8 15 17 25 15 17 18
17 25 3 5 -8 6 -20 3 -25z m84 31 c8 -5 11 -16 7 -27 -6 -18 -5 -18 8 -1 18
24 23 22 23 -13 0 -18 -4 -27 -11 -22 -6 4 -22 7 -36 7 -21 0 -26 5 -28 33 -3
33 9 41 37 23z m141 -6 c0 -3 -11 -10 -25 -15 -14 -5 -25 -13 -25 -18 0 -11
30 -9 49 2 9 6 12 4 9 -5 -7 -20 -103 -20 -103 1 0 8 11 20 25 27 25 13 70 18
70 8z m-324 -26 c19 -11 34 -26 33 -32 0 -8 -2 -9 -5 -1 -3 6 -15 9 -28 7 -29
-6 -66 12 -66 32 0 21 27 19 66 -6z m134 -29 c0 -4 -7 -13 -15 -20 -10 -8 -13
-22 -9 -39 4 -21 3 -23 -6 -11 -9 12 -10 9 -8 -15 2 -16 0 -30 -3 -30 -3 0
-22 -15 -43 -33 -20 -18 -41 -30 -47 -27 -8 6 22 57 47 80 7 5 15 24 18 40 11
44 34 75 51 69 8 -4 15 -10 15 -14z m-64 -22 c-7 -18 -17 -42 -21 -53 -7 -18
-8 -18 -15 7 -10 34 8 78 32 78 15 0 16 -3 4 -32z m-116 13 c0 -11 -31 -37
-39 -33 -13 8 -10 -16 3 -27 19 -16 38 -5 31 18 -3 10 1 24 10 31 11 9 15 9
15 1 0 -6 11 -16 25 -21 19 -7 25 -17 25 -41 0 -18 -7 -41 -16 -51 -16 -17
-19 -16 -56 17 -21 20 -44 33 -50 29 -6 -4 2 -12 19 -19 52 -22 88 -84 64
-110 -5 -6 -18 -40 -31 -78 -12 -37 -26 -67 -31 -67 -8 0 -40 46 -93 132 -9
16 -32 34 -51 42 -55 23 -45 51 27 77 24 8 33 16 26 20 -7 5 -9 11 -6 15 4 3
21 -8 39 -25 17 -18 34 -30 36 -27 8 8 -49 55 -74 62 -14 4 -23 14 -23 25 0
16 8 19 43 20 23 1 53 5 67 9 35 11 40 11 40 1z m-180 -29 c0 -15 -2 -15 -10
-2 -5 8 -10 11 -10 7 0 -5 -5 -5 -11 -1 -8 4 -7 9 2 15 17 10 29 2 29 -19z
m170 -24 c0 -13 -23 -5 -28 10 -2 7 2 10 12 6 9 -3 16 -11 16 -16z m323 -23
c-25 -31 -29 -33 -43 -19 -13 14 -13 17 9 35 13 10 32 19 43 19 17 0 16 -3 -9
-35z m-461 0 c0 -5 -13 -16 -30 -24 -56 -26 -52 -66 9 -91 20 -9 38 -29 54
-60 13 -26 52 -82 85 -125 52 -64 72 -82 126 -107 50 -24 62 -33 54 -43 -16
-20 7 -30 25 -11 12 12 33 14 103 9 48 -3 90 -9 95 -13 4 -3 -2 -15 -13 -25
-16 -15 -37 -19 -90 -19 -75 0 -84 3 -74 27 4 13 10 14 24 7 10 -6 45 -9 77
-8 l58 1 -65 7 c-36 3 -73 10 -82 14 -13 6 -18 4 -18 -7 0 -26 -41 -47 -90
-47 -60 0 -115 33 -162 95 -38 50 -48 72 -27 59 15 -9 0 18 -75 134 -77 119
-88 129 -121 114 -14 -7 -25 -17 -25 -23 0 -8 7 -6 19 5 10 9 25 14 34 10 14
-5 157 -215 157 -230 0 -3 -22 17 -49 45 -27 28 -56 51 -65 51 -38 0 -106 87
-106 137 0 27 120 134 148 131 12 -2 23 -7 24 -13z m477 -61 c-8 -10 -15 -11
-25 -3 -10 8 -8 17 9 47 l22 37 3 -33 c2 -18 -2 -40 -9 -48z m151 52 c0 -2
-11 -24 -25 -47 -14 -24 -25 -47 -25 -51 0 -5 15 -8 33 -8 68 0 70 -34 4 -83
-44 -33 -63 -38 -92 -25 -25 11 -34 28 -15 28 17 0 11 24 -15 62 -25 37 -25
38 -8 72 10 19 27 39 38 45 19 9 105 15 105 7z m-140 -141 c14 -17 5 -35 -18
-35 -18 0 -45 34 -35 44 11 11 40 6 53 -9z m-13 -65 c27 0 73 -31 88 -60 28
-54 16 -54 -49 0 -26 22 -56 40 -65 40 -9 0 -4 -6 13 -15 16 -8 44 -29 63 -45
25 -22 41 -29 55 -24 14 4 18 2 14 -5 -9 -13 -85 -15 -119 -2 -13 5 -31 17
-40 26 -15 14 -19 14 -54 -8 -56 -35 -106 -49 -149 -41 -43 8 -103 44 -104 62
0 17 7 15 43 -10 48 -34 107 -32 181 5 72 36 75 41 76 87 1 35 1 35 17 13 8
-13 22 -23 30 -23z m-97 -144 c0 -5 -7 -3 -15 4 -8 7 -12 17 -9 22 7 10 24 -9
24 -26z m-50 -21 c-17 -21 -52 -20 -48 2 2 9 9 18 16 21 7 2 11 0 10 -5 -2 -4
2 -9 7 -10 6 -1 8 6 7 15 -3 13 -1 14 9 5 10 -10 10 -15 -1 -28z m-110 15 c0
-5 -4 -10 -9 -10 -6 0 -13 5 -16 10 -3 6 1 10 9 10 9 0 16 -4 16 -10z m40 -15
c0 -8 -4 -15 -10 -15 -5 0 -10 7 -10 15 0 8 5 15 10 15 6 0 10 -7 10 -15z
m127 -11 c2 -6 -6 -14 -18 -17 -11 -3 -18 -10 -14 -16 3 -6 2 -11 -3 -11 -15
0 -21 37 -9 49 14 14 39 10 44 -5z m47 1 c-7 -16 -24 -21 -24 -6 0 8 7 13 27
20 1 1 0 -6 -3 -14z m82 0 c18 -13 15 -14 -28 -15 -53 0 -60 6 -25 20 30 12
31 12 53 -5z m-186 -30 c0 -19 -9 -19 -34 0 -19 14 -19 15 7 15 17 0 27 -5 27
-15z m100 -10 c11 -13 8 -15 -14 -15 -25 0 -33 10 -19 23 10 11 19 8 33 -8z
m100 6 c0 -23 -72 -28 -90 -6 -11 13 -6 15 39 15 28 0 51 -4 51 -9z"/>
<path d="M937 1205 c-37 -47 -67 -87 -67 -90 0 -3 10 -5 23 -5 15 0 18 3 9 9
-10 6 2 27 48 85 35 42 61 79 58 81 -2 2 -34 -34 -71 -80z"/>
<path d="M690 1180 c0 -5 4 -10 9 -10 6 0 13 5 16 10 3 6 -1 10 -9 10 -9 0
-16 -4 -16 -10z"/>
<path d="M718 1123 c7 -3 16 -2 19 1 4 3 -2 6 -13 5 -11 0 -14 -3 -6 -6z"/>
<path d="M870 1020 c0 -5 5 -10 11 -10 5 0 7 5 4 10 -3 6 -8 10 -11 10 -2 0
-4 -4 -4 -10z"/>
<path d="M536 720 c10 -38 30 -73 55 -95 21 -18 20 -17 -3 15 -15 19 -33 51
-42 70 -10 21 -13 25 -10 10z"/>
<path d="M631 683 c0 -34 2 -64 7 -66 4 -3 6 16 4 41 -5 80 -9 90 -11 25z"/>
<path d="M481 650 c0 -14 7 -36 15 -50 10 -17 13 -18 8 -5 -3 11 -10 34 -14
50 -7 27 -8 28 -9 5z"/>
<path d="M540 545 c13 -14 26 -25 28 -25 3 0 -5 11 -18 25 -13 14 -26 25 -28
25 -3 0 5 -11 18 -25z"/>
<path d="M614 459 c-9 -15 -15 -59 -8 -59 3 0 15 9 26 20 20 18 21 22 6 36
-12 13 -17 13 -24 3z m26 -19 c0 -5 -4 -10 -9 -10 -6 0 -13 5 -16 10 -3 6 1
10 9 10 9 0 16 -4 16 -10z"/>
<path d="M637 383 c-6 -33 1 -49 16 -34 16 16 24 14 30 -9 6 -24 35 -27 43 -5
5 12 10 13 20 4 15 -12 44 -6 44 10 0 15 -39 24 -54 12 -14 -12 -58 -3 -50 11
7 11 -14 38 -31 38 -7 0 -15 -12 -18 -27z m40 0 c2 -6 -2 -13 -10 -16 -8 -3
-13 3 -14 15 -2 20 18 21 24 1z m98 -33 c3 -5 -1 -10 -9 -10 -8 0 -18 5 -21
10 -3 6 1 10 9 10 8 0 18 -4 21 -10z m-60 -10 c3 -5 -1 -10 -9 -10 -9 0 -16 5
-16 10 0 6 4 10 9 10 6 0 13 -4 16 -10z"/>
<path d="M700 380 c0 -5 5 -10 10 -10 6 0 10 5 10 10 0 6 -4 10 -10 10 -5 0
-10 -4 -10 -10z"/>
<path d="M750 300 c0 -5 6 -10 14 -10 8 0 18 5 21 10 3 6 -3 10 -14 10 -12 0
-21 -4 -21 -10z"/>
<path d="M1053 739 c-26 -23 -50 -43 -52 -45 -2 -2 0 -4 6 -4 5 0 21 10 35 23
13 12 37 33 53 45 15 12 23 22 17 22 -6 0 -32 -19 -59 -41z"/>
<path d="M1085 629 c-27 -17 -40 -28 -27 -24 33 9 110 55 92 54 -8 0 -37 -14
-65 -30z"/>
<path d="M890 735 c-14 -8 -20 -14 -14 -15 5 0 19 7 30 15 24 18 16 19 -16 0z"/>
<path d="M846 700 c51 -39 68 -39 19 0 -21 17 -42 30 -48 30 -6 0 7 -13 29
-30z"/>
<path d="M785 626 c19 -28 65 -50 92 -43 12 3 8 5 -10 6 -17 1 -41 13 -59 31
-36 36 -44 38 -23 6z"/>
<path d="M707 633 c-9 -8 -7 -61 2 -93 6 -17 8 -5 7 37 -1 35 -1 63 -2 63 0 0
-4 -3 -7 -7z"/>
<path d="M737 605 c6 -46 31 -105 44 -105 5 0 0 15 -11 33 -11 17 -20 43 -20
57 0 14 -5 32 -10 40 -6 10 -8 2 -3 -25z"/>
<path d="M1365 1211 c-6 -11 9 -23 19 -14 9 9 7 23 -3 23 -6 0 -12 -4 -16 -9z"/>
<path d="M1416 1058 c3 -4 16 -8 30 -8 13 0 24 4 24 8 0 5 -13 9 -30 9 -16 0
-27 -4 -24 -9z"/>
<path d="M174 416 c-18 -14 -18 -15 -1 -21 9 -4 24 -2 32 5 33 28 5 42 -31 16z"/>
<path d="M245 330 c-3 -5 -1 -10 4 -10 6 0 11 5 11 10 0 6 -2 10 -4 10 -3 0
-8 -4 -11 -10z"/>
<path d="M977 136 c-3 -8 1 -22 8 -33 11 -15 16 -16 27 -5 9 9 10 17 2 29 -14
23 -30 27 -37 9z"/>
<path d="M814 106 c-8 -22 3 -49 19 -43 6 2 12 14 12 27 0 27 -22 39 -31 16z"/>
<path d="M1026 1511 c-3 -5 8 -14 24 -20 28 -9 29 -9 20 9 -11 21 -35 26 -44
11z"/>
<path d="M588 1476 c-4 -18 -1 -26 8 -26 16 0 18 18 5 38 -6 10 -10 7 -13 -12z"/>
<path d="M128 1113 c-4 -22 29 -56 48 -49 8 3 14 16 13 28 0 13 -3 17 -6 11
-7 -20 -43 -16 -43 5 0 14 2 15 10 2 5 -8 12 -11 15 -8 10 9 -4 28 -20 28 -7
0 -15 -8 -17 -17z"/>
</g>
</svg>
